<mxfile host="app.diagrams.net" modified="2023-06-17T21:02:04.560Z" agent="Mozilla/5.0 (Windows NT 10.0; Win64; x64; rv:109.0) Gecko/20100101 Firefox/115.0" version="21.3.7" etag="pkrRdsFOn5o6Ko8UQ7md" type="github">
  <diagram name="PÃ¡gina-1" id="BqYtGFpVmass1OdKrt5s">
    <mxGraphModel>
      <root>
        <mxCell id="0" />
        <mxCell id="1" parent="0" />
      </root>
    </mxGraphModel>
  </diagram>
</mxfile>
